<?xml version="1.0" standalone="no"?>
<!DOCTYPE svg PUBLIC "-//W3C//DTD SVG 20010904//EN"
 "http://www.w3.org/TR/2001/REC-SVG-20010904/DTD/svg10.dtd">
<svg version="1.0" xmlns="http://www.w3.org/2000/svg"
 width="192.000000pt" height="192.000000pt" viewBox="0 0 192.000000 192.000000"
 preserveAspectRatio="xMidYMid meet">
<metadata>
Created by potrace 1.11, written by Peter Selinger 2001-2013
</metadata>
<g transform="translate(0.000000,192.000000) scale(0.100000,-0.100000)"
fill="#000000" stroke="none">
<path d="M210 950 l0 -660 170 0 170 0 2 475 3 475 121 -472 121 -473 154 -3
154 -2 125 490 125 489 3 -489 2 -490 165 0 165 0 0 660 0 660 -267 -2 -268
-3 -99 -388 c-55 -213 -102 -384 -106 -380 -4 4 -42 145 -85 313 -43 168 -87
340 -98 383 l-19 77 -269 0 -269 0 0 -660z"/>
</g>
</svg>
