<?xml version="1.0" standalone="no"?>
<!DOCTYPE svg PUBLIC "-//W3C//DTD SVG 20010904//EN"
 "http://www.w3.org/TR/2001/REC-SVG-20010904/DTD/svg10.dtd">
<svg version="1.0" xmlns="http://www.w3.org/2000/svg"
 width="583.000000pt" height="583.000000pt" viewBox="0 0 583.000000 583.000000"
 preserveAspectRatio="xMidYMid meet">
<metadata>
Created by potrace 1.11, written by Peter Selinger 2001-2013
</metadata>
<g transform="translate(0.000000,583.000000) scale(0.100000,-0.100000)"
fill="#000000" stroke="none">
<path d="M5 4862 l0 -617 350 -2 c1049 -5 2467 -4 2515 2 97 12 143 25 229 67
102 49 218 159 268 253 185 352 11 774 -367 890 -50 15 -182 17 -1525 20
l-1470 4 0 -617z"/>
<path d="M0 2912 l0 -618 2648 1 c1456 1 2664 5 2684 9 105 20 239 95 321 180
234 243 229 625 -12 866 -66 66 -144 114 -238 147 l-78 28 -2662 3 -2663 2 0
-618z"/>
<path d="M0 1058 l0 -618 1848 0 c1993 0 1903 -2 2019 52 72 33 153 90 201
142 58 62 124 171 137 226 1 3 7 25 14 50 18 64 21 204 4 274 -48 211 -191
377 -389 452 -35 13 -64 22 -64 19 0 -2 -12 1 -27 7 -21 8 -520 12 -1885 12
l-1858 1 0 -617z"/>
</g>
</svg>
