<svg width="272" height="49" fill="none" xmlns="http://www.w3.org/2000/svg"><path stroke="#B73232" stroke-width="7" d="M214 14.5h36"/><path stroke="#B73282" stroke-width="7" d="M211 36h47"/><path stroke="#5CADBF" stroke-width="7" d="M223 25.5h45"/><path d="M38.72 11L33.2 39h-7.32l2.88-14.76-9.32 12h-3.48l-5.08-12L7.92 39H.64l5.6-28h6.44l6.56 16.2L31.96 11h6.76zm20.244 22.56h-11.92L43.804 39h-8.36l17.96-28h7.8l6.76 28h-7.88l-1.12-5.44zm-1.2-5.84l-1.88-9.08-5.36 9.08h7.24zm31.165-3.84L98.33 39h-8.84l-6.44-10.08-3.64 3.28-1.36 6.8h-7.8l5.6-28h7.8l-2.28 11.44L94.01 11h9.32l-14.4 12.88zm23.559-6.76l-.92 4.72h12.44l-1.16 5.92h-12.48l-1 5.12h14.68l-1.28 6.12h-22.44l5.6-28h21.92l-1.24 6.12h-14.12zM132.803 11h7.92l-5.6 28h-7.92l5.6-28zm18.234 6.28h-8.6l1.28-6.28h25.08l-1.28 6.28h-8.56L154.597 39h-7.92l4.36-21.72zm25.473 22.28c-2.32 0-4.52-.28-6.6-.84-2.08-.56-3.774-1.28-5.08-2.16l3.12-5.92c1.413.907 2.92 1.6 4.52 2.08 1.6.453 3.2.68 4.8.68 1.52 0 2.693-.213 3.52-.64.853-.453 1.28-1.067 1.28-1.84 0-.667-.387-1.187-1.16-1.56-.747-.373-1.92-.773-3.52-1.2-1.814-.48-3.32-.96-4.52-1.44a8.438 8.438 0 01-3.12-2.28c-.854-1.013-1.28-2.347-1.28-4 0-2 .546-3.747 1.64-5.24 1.093-1.52 2.653-2.693 4.68-3.52 2.026-.827 4.4-1.24 7.12-1.24 2 0 3.866.213 5.6.64 1.733.4 3.226.987 4.48 1.76l-2.88 5.88a12.74 12.74 0 00-3.64-1.56 14.64 14.64 0 00-4.04-.56c-1.574 0-2.814.253-3.72.76-.88.507-1.32 1.16-1.32 1.96 0 .693.386 1.227 1.16 1.6.773.373 1.973.773 3.6 1.2 1.813.453 3.306.92 4.48 1.4a7.9 7.9 0 013.08 2.2c.853.987 1.28 2.28 1.28 3.88 0 1.973-.56 3.72-1.68 5.24-1.094 1.493-2.667 2.653-4.72 3.48-2.027.827-4.387 1.24-7.08 1.24zm30.578 0c-2.827 0-5.293-.52-7.4-1.56-2.08-1.04-3.693-2.493-4.84-4.36-1.12-1.867-1.68-4-1.68-6.4 0-3.2.733-6.08 2.2-8.64 1.493-2.56 3.56-4.56 6.2-6 2.667-1.44 5.693-2.16 9.08-2.16 2.827 0 5.28.52 7.36 1.56 2.107 1.04 3.72 2.493 4.84 4.36 1.147 1.867 1.72 4 1.72 6.4 0 3.2-.747 6.08-2.24 8.64-1.467 2.56-3.533 4.56-6.2 6-2.64 1.44-5.653 2.16-9.04 2.16zm.68-6.56c1.76 0 3.307-.44 4.64-1.32a8.761 8.761 0 003.08-3.52c.72-1.493 1.08-3.133 1.08-4.92 0-1.893-.587-3.4-1.76-4.52-1.147-1.147-2.76-1.72-4.84-1.72-1.76 0-3.307.44-4.64 1.32-1.333.88-2.36 2.067-3.08 3.56-.72 1.467-1.08 3.093-1.08 4.88 0 1.893.573 3.413 1.72 4.56 1.173 1.12 2.8 1.68 4.88 1.68z" fill="#000"/><circle cx="268.5" cy="25.5" r="3.5" fill="#D9BC57"/><path d="M261 36a3.5 3.5 0 11-7 0 3.5 3.5 0 017 0z" fill="#59D957"/><path d="M253.5 14.45a3.5 3.5 0 11-7 0 3.5 3.5 0 017 0z" fill="#EB6C6C"/></svg>