<?xml version="1.0" encoding="iso-8859-1"?>
<!-- Generator: Adobe Illustrator 19.2.0, SVG Export Plug-In . SVG Version: 6.00 Build 0)  -->
<svg version="1.1" id="DH-NL-RGB-Logo" xmlns="http://www.w3.org/2000/svg" xmlns:xlink="http://www.w3.org/1999/xlink" x="0px"
	 y="0px" width="1346.456665px" height="566.9290771px" viewBox="0 0 1346.456665 566.9290771"
	 style="enable-background:new 0 0 1346.456665 566.9290771;" xml:space="preserve">
<g>
	<rect y="0.000495" style="fill:none;" width="1346.456665" height="566.9290771"/>
	<g>
		<path style="fill:#155429;" d="M906.6410522,252.496994c-8.2011719,0-14.0009766,4.1006012-17.0009766,10.1006012
			l-0.1005859-0.0996094c0.5-2.7001953,0.7001953-6.7011871,0.7001953-9.1005859
			c-6.6005859-0.2001953-14.2012329,0.0995941-20.5009766,0.8993988v7.7011871c2.9003906,0.1992188,6.2997437,0.5996094,8.7001953,1
			v40.2022095h12.5009766v-24.0019836c0-8.9004211,5.1005859-16.3008118,11.7001953-16.3008118
			c4.9003906,0,6.4003906,3.2001953,6.4003906,8.5010071v31.8017883h12.4013062v-34.9024048
			C921.4417725,259.5975952,917.8411865,252.496994,906.6410522,252.496994z M779.3411865,235.2958984
			c-8.3007202,0-16.6005249,0.4004059-22.0009155,0.4004059h-8.4003906v7.7997894
			c2.5996094,0.6005096,5.7001953,1.1005096,8.7001953,1.300705v49.3028107c-3,0.2001953-6.1005859,0.7001953-8.7001953,1.2998047
			v7.8007812h8.7001953c3.2998047,0,11.7001953,0.4002991,18.7011108,0.4002991
			c22.0009766,0,37.2022095-12.1015015,37.2022095-35.3027039
			C813.543396,244.6963043,800.2425537,235.2958984,779.3411865,235.2958984z M777.5413818,292.6991882
			c-2.5,0-5.3007202-0.0995789-7.2001953-0.3993835v-46.1035004c2.0996704-0.1993103,5.0996704-0.2999115,8.0996704-0.2999115
			c15.6015015,0,21.5019531,8.7012024,21.5019531,23.4013977
			C799.9428101,285.4989929,790.6420288,292.6991882,777.5413818,292.6991882z M844.2396851,252.496994
			c-14.7012329,0-23.4014282,11.4004059-23.4014282,26.3018036c0,17.5010071,8.7001953,25.4013977,24.5010376,25.4013977
			c5.9003906,0,12.2011719-1.0997009,17.8017578-3l-1.2998657-9.3007812
			C856.7406616,293.5996094,851.7396851,294.5,846.840271,294.5c-9.3007812,0-13.3007812-4.7001953-13.4013672-13.601593h31.0019531
			c0,0,0.4003296-3.5996094,0.4003296-7.2998047C864.8411865,261.7977905,858.7406616,252.496994,844.2396851,252.496994z
			 M833.5394897,272.4979858c0.6992188-6.7997742,4.7001953-10.8007812,10.1005859-10.8007812
			c5.5,0,9,3.7001953,8.7998047,10.8007812H833.5394897z M1124.4744873,269.898407
			c0-11.0010071-4.8007812-17.5010071-20.1014404-17.5010071c-6.1005859,0-13.0010986,1.5-18.5010986,3.5l1.9005127,9.4003906
			c4.7996826-1.9003906,10.6005859-3.2998047,15.1005859-3.2998047c6.7001953,0,9,2.7998047,9,8.7002258v2.0995789
			c-17.4003906,0-28.8018799,5.6006165-28.8018799,17.3018188c0,8.1005859,5.3007812,14.1005859,14.2012939,14.1005859
			c7.5009766,0,13.6005859-4,16.0009766-9.6005859l0.1004639,0.0995789c-0.4003906,2.6006165-0.5,5.6006165-0.5,8.6006165
			c6.4003906,0.2001953,14-0.0996094,20.3007812-0.8994141v-7.7012024c-2.9003906-0.1991882-6.3007812-0.5995789-8.7001953-1
			V269.898407z M1111.8730469,282.4989929c0,5.9004211-4.2001953,12.1006165-10.6005859,12.1006165
			c-3.7998047,0-6.0996094-2.6006165-6.0996094-6c0-4.3008118,3.5996094-7.6006165,16.7001953-7.6006165V282.4989929z
			 M1165.0732422,252.5966034c-17.5010986,0-27.1016846,11.5009918-27.1016846,28.3018036
			c0,15.2012024,6.5996094,23.3017883,18.5010986,23.3017883c6.6005859,0,12.2001953-3.6005859,14.8007812-9.4003906
			l0.2000732,0.0996094c-0.5,2.6005859-0.6004639,4.8007812-0.6004639,7.3007812v3.1004944
			c0,8.5-4.5,12.2998047-14.0010986,12.2998047c-4.9003906,0-10.2998047-0.8993835-14.7001953-2.5l-1.2001953,11.3008118
			c4.2001953,1,9.6005859,1.7001953,15.2012939,1.7001953c18.9003906,0,27.0008545-8.9003906,27.0008545-24.0010071v-50.0028992
			C1177.7734375,253.1972046,1171.9735107,252.5966034,1165.0732422,252.5966034z M1170.7734375,277.1982117
			c0,8.7012024-4.1005859,16.601593-11.0009766,16.601593c-5.9005127,0-8.7003174-4.8008118-8.7003174-14.1006165
			c0-12.5009766,5.2998047-17.2012024,12.8009033-17.2012024c2.5,0,4.7001953,0.2998047,6.9003906,0.7998047V277.1982117z
			 M993.8170776,243.6963043c2.2998047,0.5,5,0.9002991,7.4004517,1.1004944v18.0009918h-29.1016235v-18.0009918
			c2.3994751-0.2001953,5.0996704-0.6004944,7.4003906-1.1004944v-8h-27.8016968v7.7997894
			c2.5995483,0.6005096,5.7001953,1.1005096,8.7001953,1.300705v49.3028107c-3,0.2001953-6.100647,0.7001953-8.7001953,1.2998047
			v7.8007812h27.8016968v-8c-2.3007202-0.5010071-5.0009155-0.9003906-7.4003906-1.1005859v-20.3008118h29.1016235v20.3008118
			c-2.4004517,0.2001953-5.100647,0.5995789-7.4004517,1.1005859v8h27.8007202v-7.8007812
			c-2.5996094-0.5996094-5.7001953-1.0996094-8.7001953-1.2998047v-49.3028107c3-0.2001953,6.1005859-0.7001953,8.7001953-1.300705
			v-7.7997894h-27.8007202V243.6963043z M1069.3748779,269.898407c0-11.0010071-4.8007812-17.5010071-20.1014404-17.5010071
			c-6.1005859,0-13.0009766,1.5-18.5009766,3.5l1.9003906,9.4003906c4.7998047-1.9003906,10.6005859-3.2998047,15.1005859-3.2998047
			c6.7000732,0,9,2.7998047,9,8.7002258v2.0995789c-17.4003906,0-28.8018799,5.6006165-28.8018799,17.3018188
			c0,8.1005859,5.3009033,14.1005859,14.2012939,14.1005859c7.5008545,0,13.6005859-4,16.0008545-9.6005859l0.1005859,0.0995789
			c-0.4003906,2.6006165-0.5,5.6006165-0.5,8.6006165c6.4003906,0.2001953,14-0.0996094,20.3007812-0.8994141v-7.7012024
			c-2.9003906-0.1991882-6.3007812-0.5995789-8.7001953-1V269.898407z M1056.7734375,282.4989929
			c0,5.9004211-4.2001953,12.1006165-10.6005859,12.1006165c-3.7998047,0-6.0996094-2.6006165-6.0996094-6
			c0-4.3008118,3.5996094-7.6006165,16.7001953-7.6006165V282.4989929z"/>
		<g>
			<path style="fill:#1D6B34;" d="M555.03302,399.4653015h-86.3006287v48.1889954H555.03302
				c62.7600708,0,85.8988647-4.7703857,85.8988647-4.7703857v-48.7490234
				C640.9318848,394.1348877,617.5720215,399.4653015,555.03302,399.4653015z"/>
			<path style="fill:#1D6B34;" d="M356.8340149,387.2688904l15.6869812,36.7766113
				c11.6300964-0.1281128,23.4411926-0.1960144,35.4125977-0.1960144c18.1674194,0,35.9732971,0.153717,53.3143921,0.444519
				v-33.6119995l72.3984985-9.3710938c0,0-10.0596924-1.7401123-37.4072876-3.7412109
				c-27.3467102-2-66.6224976-1.2704163-66.6224976-1.2704163s-15.7539062,5.295929-21.8320007,6.3554077
				c-6.0772095-1.0594788-21.8301086-6.3554077-21.8301086-6.3554077s-38.9798889-0.7280884-66.3265991,1.2704163
				c-27.3088074,1.9957886-45.497406,4.8716125-45.6055908,4.8866882L356.8340149,387.2688904z"/>
			<path style="fill:#155429;" d="M353.3234863,391.9038086l0.1343994,32.4094849
				c6.2933044-0.1080017,12.6497192-0.1972961,19.0631104-0.2677917l-15.6869812-36.7766113l-82.811615-4.8125v9.2784119
				C329.9324951,391.5990906,353.3234863,391.9038086,353.3234863,391.9038086z"/>
			<path style="fill:#1D6B34;" d="M345.8389893,399.4653015h-85.3045959c-62.5390015,0-85.8988953-5.3304138-85.8988953-5.3304138
				v48.7490234c0,0,23.1389008,4.7703857,85.8988953,4.7703857h85.3045959V399.4653015z"/>
			<path style="fill:#155429;" d="M182.282196,395.4159851c-5.2655029-0.7384949-7.646698-1.2810974-7.646698-1.2810974v48.7490234
				c0,0,8.3408966,1.7182007,28.574295,3.0922852C189.7876892,430.8226929,183.3031921,412.0421143,182.282196,395.4159851z"/>
			<g>
				<path style="fill:#FFFFFF;" d="M203.274292,411.1117859h9.171402v2.8701172h-2.4853973l5.8457031,16.2064819
					c0.2445984,0.6656189,0.3847961,1.4356079,0.5600891,2.1353149h0.069809
					c0.1747894-0.699707,0.3148956-1.469696,0.5599976-2.1353149l5.740799-16.2064819h-2.835495v-2.8701172h8.9609985v2.8701172
					h-2.2051086l-8.4008942,21.6322937H213.91539l-8.5058899-21.6322937h-2.1352081V411.1117859z"/>
				<path style="fill:#FFFFFF;" d="M231.1907959,432.7441101h2.4149933l0.1401062-18.762207h-2.5550995v-2.8701172h10.8862
					c5.0404968,0,7.4203949,2.905304,7.4203949,6.4756165c0,4.2352905-2.7299957,6.1605835-5.8451996,6.4755859v0.0703125
					c1.3647003,0.1048889,2.2749023,1.2597046,3.1152039,2.6600952l2.660202,4.4804993
					c0.7001953,1.1548157,1.3652039,1.4702148,2.1704102,1.4702148h0.9101868v2.8700867h-2.2754059
					c-2.0654907,0-3.0102997-0.2098999-4.4452972-2.5903015l-3.3603973-5.7055969
					c-1.0150909-1.75-1.5404968-2.1351929-2.6952972-2.1351929h-2.1006012l-0.0697937,7.5610046h2.8353882v2.8700867h-9.2059937
					V432.7441101z M240.67659,422.1029968c2.7651062,0,4.6904144-1.4701843,4.6904144-4.0957031
					c0-2.5552063-1.5752106-4.0253906-4.4101105-4.0253906h-3.2554016l-0.0702972,8.1210938H240.67659z"/>
				<path style="fill:#FFFFFF;" d="M255.5154877,432.7441101h2.4502106l0.1401062-18.762207h-2.8354034v-2.8701172h17.2216034
					l0.1401978,6.4403992h-3.2554016l-0.210022-3.570282h-7.105896l-0.0697937,7.5610046h7.0005188v3.0800781h-7.0005188
					l-0.070282,8.1211243h7.4559937l0.2797852-3.9907227h3.2904968l-0.2797852,6.8608093h-17.1518097V432.7441101z"/>
				<path style="fill:#FFFFFF;" d="M276.8997803,432.7441101h2.485321l0.139679-18.762207h-2.625v-2.8701172h11.6211243
					c7.875885,0,12.3910828,4.5854187,12.3910828,11.690918c0,7.2460938-4.5854797,12.8114929-12.4263,12.8114929h-11.585907
					V432.7441101z M287.2258911,432.7441101c5.9854126,0,9.3457031-3.640625,9.3457031-9.7661133
					c0-5.4956055-3.1503906-8.9960938-9.1708984-8.9960938h-3.9555054l-0.1397095,18.762207H287.2258911z"/>
				<path style="fill:#FFFFFF;" d="M303.6750793,432.7441101h2.4502258l0.1397095-18.762207h-2.835022v-2.8701172h17.2217102
					l0.1400757,6.4403992h-3.2552795l-0.210022-3.570282h-7.105896l-0.0698853,7.5610046h7.0004883v3.0800781h-7.0004883
					l-0.0703125,8.1211243h7.4561157l0.2797852-3.9907227h3.2904968l-0.280304,6.8608093h-17.1513977V432.7441101z"/>
			</g>
			<g>
				<path style="fill:#FFFFFF;" d="M493.8331909,432.7441101h2.4150085l0.140686-18.762207h-2.5556946v-2.8701172h10.8858032
					c5.0410156,0,7.4207764,2.905304,7.4207764,6.4756165c0,4.2352905-2.7303772,6.1605835-5.8456726,6.4755859v0.0703125
					c1.3652954,0.1048889,2.2753906,1.2597046,3.1152954,2.6600952l2.6611023,4.4804993
					c0.6992188,1.1548157,1.3643188,1.4702148,2.1699219,1.4702148h0.9101562v2.8700867h-2.2753906
					c-2.0653992,0-3.0106812-0.2098999-4.445282-2.5903015l-3.3604126-5.7055969
					c-1.0155945-1.75-1.5400085-2.1351929-2.6953125-2.1351929h-2.1005859l-0.0703125,7.5610046h2.8359985v2.8700867h-9.2060852
					V432.7441101z M503.3194885,422.1029968c2.7647095,0,4.6905212-1.4701843,4.6905212-4.0957031
					c0-2.5552063-1.5752258-4.0253906-4.4112244-4.0253906h-3.2547913l-0.0704041,8.1210938H503.3194885z"/>
				<path style="fill:#FFFFFF;" d="M518.1583862,432.7441101h2.4501953l0.1395874-18.762207h-2.8348999v-2.8701172h17.2217407
					l0.1395874,6.4403992h-3.2548828l-0.2098999-3.570282h-7.1055298l-0.0703125,7.5610046h7.0010376v3.0800781h-7.0010376
					l-0.0703125,8.1211243h7.4560547l0.2802734-3.9907227h3.2900391l-0.2802124,6.8608093h-17.1514282V432.7441101z"/>
				<path style="fill:#FFFFFF;" d="M555.7843628,418.2875977v-3.9204102
					c-0.9101562-0.2451782-2.3105469-0.5952759-4.1651001-0.5952759c-5.8457031,0-8.8916016,3.570282-8.8916016,9.6958008
					c0,5.565979,3.3604126,9.4863892,8.366333,9.4863892c1.6795654,0,3.4647827-0.175293,4.375-0.3500977l0.140564-4.4107056h3.5
					l-0.1396484,6.6860962c-1.5751953,0.5249023-4.725647,1.1546936-7.6307983,1.1546936
					c-8.7862549,0-12.9512329-5.4603882-12.9512329-12.426178c0-7.6309204,5.1102905-12.9160156,13.265625-12.9160156
					c3.0810547,0,5.9862671,0.6650085,7.6308594,1.3300171v6.265686H555.7843628z"/>
				<path style="fill:#FFFFFF;" d="M578.3937988,432.7441101h2.4501953l0.0703125-7.8760071H569.538269l-0.0702515,7.8760071h2.625
					v2.8700867h-9.0303345v-2.8700867h2.4501953l0.1395874-18.762207h-2.5897827v-2.8701172h9.0303345v2.8701172h-2.4854126
					l-0.0693359,7.8056946h11.3760376l0.0702515-7.8056946h-2.5907593v-2.8701172h9.031189v2.8701172h-2.4852905
					l-0.1397095,18.762207h2.625v2.8700867h-9.031189V432.7441101z"/>
				<path style="fill:#FFFFFF;" d="M596.7081909,432.7441101h2.5205078l0.1397095-18.762207h-5.7061157l-0.1395874,3.570282h-3.5
					l0.1395874-6.4403992h22.227478l0.1397095,6.4403992h-3.5l-0.140625-3.570282h-5.5995483l-0.1407471,18.762207h2.835022
					v2.8700867h-9.2753906V432.7441101z"/>
			</g>
			<g>
				<path style="fill:#E3C029;" d="M409.0238953,179.7787933c23.405304,0,41.0449829,1.1455078,52.7783813,2.2832031
					l2.6631165-21.3183899c-11.4707031-1.0146027-33.0527954-3.5449066-56.5166016-3.5449066
					c-23.6817017,0-45.9219055,2.5625-57.6054993,3.5722961l2.7792969,21.6083984
					C364.7494812,181.1470032,383.4370117,179.7787933,409.0238953,179.7787933z M446.3451843,170.2124023
					c0.2138977-1.7510071,2.3486938-2.9257965,5.3085938-2.9257965c0.460022,0,0.9326172,0.0292969,1.4013977,0.0839996
					c1.5645142,0.1952972,3.0078125,0.6864929,4.0723267,1.3925934c1.2587891,0.8388062,1.8807983,1.8973999,1.7450867,2.9853058
					c-0.2138977,1.7490997-2.342804,2.9267883-5.3008118,2.9267883c-0.4618835,0-0.9346008-0.0292969-1.4042969-0.0868988
					C448.5951843,174.1508942,446.0942993,172.2700043,446.3451843,170.2124023z M430.151886,164.9116058l7.1698914,3.9296875
					l-7.3651733,3.5508118l-7.1739197-3.9307098L430.151886,164.9116058z M407.496582,164.227005
					c3.8701172,0,6.7881165,1.6660919,6.7881165,3.8759918c0,2.2100067-2.9179993,3.8769989-6.7881165,3.8769989
					c-3.8710938,0-6.789093-1.6669922-6.789093-3.8769989C400.707489,165.8930969,403.6254883,164.227005,407.496582,164.227005z
					 M384.8422852,164.9116058l7.367218,3.5468903l-7.1708984,3.933609l-7.3682251-3.5508118L384.8422852,164.9116058z
					 M357.8647766,168.7631989c1.0644226-0.7061005,2.5136108-1.1972961,4.078125-1.3925934
					c0.4667969-0.0547028,0.9354858-0.0839996,1.3974915-0.0839996c2.9588928,0,5.0927124,1.1747894,5.3104858,2.9228973
					c0.2520142,2.0605011-2.2538757,3.941391-5.8231812,4.378891c-0.4726868,0.0576019-0.9395142,0.0868988-1.4013977,0.0868988
					c-2.9590149,0-5.092804-1.1757965-5.3066101-2.9267883C355.9867859,170.6605988,356.605011,169.602005,357.8647766,168.7631989z
					"/>
				<g>
					<g>
						<path style="fill:#E3C029;" d="M413.5336914,135.0531006c0-3.1298981-2.5390015-5.6708984-5.6708984-5.6708984
							c-3.132782,0-5.6708984,2.5410004-5.6708984,5.6708984c0,3.1358032,2.5381165,5.6710052,5.6708984,5.6710052
							C410.9946899,140.7241058,413.5336914,138.1889038,413.5336914,135.0531006z M353.0249023,138.891098
							c0-3.131897-2.5381165-5.6728973-5.672821-5.6728973c-3.1337891,0-5.6708984,2.5410004-5.6708984,5.6728973
							c0,3.1298981,2.5371094,5.6690063,5.6708984,5.6690063
							C350.4867859,144.5601044,353.0249023,142.0209961,353.0249023,138.891098z M401.3500977,142.0209961
							c-3.1269226,0-5.6708984,2.5410004-5.6708984,5.6708984c0,3.1328125,2.5439758,5.6708984,5.6708984,5.6708984
							c3.132782,0,5.6737976-2.5380859,5.6737976-5.6708984
							C407.0238953,144.5619965,404.4828796,142.0209961,401.3500977,142.0209961z M388.331604,142.9828949
							c-3.1328125,0-5.6708984,2.5381012-5.6708984,5.6697998c0,3.1328125,2.5380859,5.6690063,5.6708984,5.6690063
							c3.132782,0,5.6698914-2.5361938,5.6698914-5.6690063C394.0014954,145.5209961,391.464386,142.9828949,388.331604,142.9828949
							z M375.3110962,143.9409027c-3.1289062,0-5.6700134,2.5381012-5.6700134,5.6697998
							c0,3.1309967,2.5411072,5.6719971,5.6700134,5.6719971c3.1366882,0,5.6748047-2.5410004,5.6748047-5.6719971
							C380.9859009,146.4790039,378.4477844,143.9409027,375.3110962,143.9409027z M362.2953796,144.8988037
							c-3.132782,0-5.6737976,2.5410004-5.6737976,5.6708984c0,3.1300049,2.5410156,5.6708984,5.6737976,5.6708984
							c3.1328125,0,5.6679993-2.5408936,5.6679993-5.6708984
							C367.9633789,147.4398041,365.4281921,144.8988037,362.2953796,144.8988037z M349.269989,145.8567963
							c-3.1347046,0-5.6669922,2.5391998-5.6669922,5.6708984c0,3.1300049,2.5322876,5.6708984,5.6669922,5.6708984
							c3.1329041,0,5.6719055-2.5408936,5.6719055-5.6708984
							C354.9418945,148.3959961,352.4028931,145.8567963,349.269989,145.8567963z M414.3725891,142.0209961
							c-3.1328125,0-5.6708984,2.5410004-5.6708984,5.6708984c0,2.4569092,1.5604858,4.5467987,3.7460938,5.3368988
							l5.5809937-9.6689911C417.0404968,142.5267944,415.7651978,142.0209961,414.3725891,142.0209961z"/>
						<path style="fill:#D2AD15;" d="M468.370575,133.2182007c-3.1317749,0-5.6708984,2.5410004-5.6708984,5.6728973
							c0,3.1298981,2.5391235,5.6690063,5.6708984,5.6690063c3.1328125,0,5.6719055-2.5391083,5.6719055-5.6690063
							C474.0424805,135.759201,471.5033875,133.2182007,468.370575,133.2182007z M466.4545898,145.8567963
							c-3.1318054,0-5.6708984,2.5391998-5.6708984,5.6708984c0,3.1300049,2.539093,5.6708984,5.6708984,5.6708984
							c3.1347961,0,5.6679993-2.5408936,5.6679993-5.6708984
							C472.1225891,148.3959961,469.589386,145.8567963,466.4545898,145.8567963z M453.4350891,144.8988037
							c-3.1328125,0-5.6698914,2.5410004-5.6698914,5.6708984c0,3.1300049,2.5370789,5.6708984,5.6698914,5.6708984
							c3.1299133,0,5.6689148-2.5408936,5.6689148-5.6708984
							C459.1040039,147.4398041,456.5650024,144.8988037,453.4350891,144.8988037z M440.410675,143.9409027
							c-3.132782,0-5.6708984,2.5381012-5.6708984,5.6697998c0,3.1309967,2.5381165,5.6719971,5.6708984,5.6719971
							c3.1357117,0,5.672821-2.5410004,5.672821-5.6719971C446.0834961,146.4790039,443.5463867,143.9409027,440.410675,143.9409027
							z M427.3910828,142.9828949c-3.1297913,0-5.6708984,2.5381012-5.6708984,5.6697998
							c0,3.1328125,2.5411072,5.6690063,5.6708984,5.6690063c3.1358032,0,5.6739197-2.5361938,5.6739197-5.6690063
							C433.0650024,145.5209961,430.526886,142.9828949,427.3910828,142.9828949z M418.0287781,143.3598022l-5.5809937,9.6689911
							c0.5996094,0.2177124,1.2489929,0.3339996,1.9248047,0.3339996c3.1328125,0,5.6727905-2.5380859,5.6727905-5.6708984
							C420.0453796,145.9546051,419.2612915,144.3999023,418.0287781,143.3598022z"/>
					</g>
				</g>
				<path style="fill:#D2AD15;" d="M407.496582,171.9799957c-2.2938843,0-4.2539062-0.5868988-5.4707031-1.5234985
					l-5.6054993,9.4365997c3.999115-0.0733032,8.1983032-0.1143036,12.6035156-0.1143036
					c23.405304,0,41.0449829,1.1455078,52.7783813,2.2832031l2.6631165-21.3183899
					c-11.155304-0.9853058-31.867218-3.4062042-54.5712891-3.5371094l-4.2520142,7.1562958
					c0.5869141-0.0868988,1.2051086-0.135788,1.8544922-0.135788c3.8701172,0,6.7881165,1.6660919,6.7881165,3.8759918
					C414.2846985,170.3130035,411.3666992,171.9799957,407.496582,171.9799957z M446.3451843,170.2124023
					c0.2138977-1.7510071,2.3486938-2.9257965,5.3085938-2.9257965c0.460022,0,0.9326172,0.0292969,1.4013977,0.0839996
					c1.5645142,0.1952972,3.0078125,0.6864929,4.0723267,1.3925934c1.2587891,0.8388062,1.8807983,1.8973999,1.7450867,2.9853058
					c-0.2138977,1.7490997-2.342804,2.9267883-5.3008118,2.9267883c-0.4618835,0-0.9346008-0.0292969-1.4042969-0.0868988
					C448.5951843,174.1508942,446.0942993,172.2700043,446.3451843,170.2124023z M430.151886,164.9116058l7.1698914,3.9296875
					l-7.3651733,3.5508118l-7.1739197-3.9307098L430.151886,164.9116058z"/>
			</g>
			<path style="fill:#155429;" d="M461.2479858,390.6820984v1.2217102h80.5968018v-9.4472961
				c0,0-2.9561768-0.4638062-8.1984253-1.1455078L461.2479858,390.6820984z"/>
			<path style="fill:#155429;" d="M635.7069702,443.7172852c3.5819092-0.5532837,5.2249146-0.8334961,5.2249146-0.8334961
				v-48.7489014c0,0-5.7581787,1.3130188-19.2000732,2.6357117
				C630.8599854,407.889801,634.5040894,425.9981079,635.7069702,443.7172852z"/>
			<g>
				<g>
					<path style="fill:#FFFFFF;" d="M387.8327026,409.1924133h2.1207886l0.1210022-16.2376099h-2.4537964v-2.484314h14.9046936
						l0.1214905,5.5745239h-2.817688l-0.1816101-3.09021h-6.1499023l-0.0604858,6.543396h6.0589905v2.6662903h-6.0589905
						l-0.0605164,7.0279236h6.4525146l0.2424011-3.4532166h2.8478088l-0.2425232,5.9375h-14.8441772V409.1924133z"/>
					<path style="fill:#FFFFFF;" d="M406.4608765,409.1924133h2.059906l0.1210022-16.2376099h-2.6657715v-2.484314h5.5739746
						l9.8157043,12.8149109c0.6358948,0.8479004,1.5448914,2.2413025,2.1203003,3.1806946h0.0604858l-0.1210022-13.5112915
						h-2.362793v-2.484314h7.3919067v2.484314h-2.0603027l-0.1210022,18.7218933h-2.7568054l-10.6030884-13.7537842
						c-0.605896-0.7875061-1.1813965-1.6359253-1.4844055-2.2418213l-0.0604858,0.0609131l0.1210022,13.4504089h2.3327942v2.4842834
						h-7.3614197V409.1924133z"/>
				</g>
			</g>
			
				<linearGradient id="SVGID_1_" gradientUnits="userSpaceOnUse" x1="582.3696899" y1="348.4849854" x2="582.3726196" y2="348.4849854" gradientTransform="matrix(-1 0 0 1 1142.9726562 0)">
				<stop  offset="0" style="stop-color:#B98F16"/>
				<stop  offset="1" style="stop-color:#D2AD15"/>
			</linearGradient>
			<polygon style="fill:url(#SVGID_1_);" points="560.6000977,348.4942932 560.6000977,348.475708 560.6030273,348.4942932 			"/>
			<path style="fill:#D2AD15;" d="M635.2357788,248.3634033c0-11.0077972-14.6953125-7.530304-22.7539062-7.530304
				c-8.0625,0-7.4873047-10.4111023-7.4873047-10.4111023c2.725647,0,7.8721313,0,15.3428345,0
				C632.5834961,230.4219971,640.4144897,237.9718018,635.2357788,248.3634033z"/>
			<path style="fill:#EFD544;" d="M587.6245117,225.8379974c3.5799561-3.5809937,7.2938843-5.5536957,12.5760498-5.5536957
				c11.7247314,0,28.6827393-0.7471008,31.0498047-6.9042969c2.0577393,2.1581879,1.8671875,6.5155945-3.1434937,11.5234985
				c13.2012329,0,15.5253906,3.0028992,16.8574219,5.809494c3.4453125,7.2559052-2.5322266,17.6504059-9.7285156,17.6504059
				c5.1787109-10.3916016-2.6522827-17.9414062-14.8983765-17.9414062c-7.4707031,0-12.6171875,0-15.3428345,0h-2.2958984
				h-2.4981079c-1.7967529,0-3.7684937,0.9423981-5.4082031,2.5820007c-3.4765015,3.4776001-3.4765015,9.1376953,0,12.6152954
				l24.3067017,24.305603c1.5350952,1.5342102,2.6445312,3.2763977,3.5459595,5.1308899l-39.9854126-30.664093
				C580.8978882,237.9962006,582.6068726,230.857605,587.6245117,225.8379974z"/>
			<path style="fill:#B98F16;" d="M558.9710693,202.0363007c-0.1953125-0.7304993-0.3203125-1.4170074-0.3875732-2.0684052
				c3.5263062-4.1376953,9.4140015-5.7655945,17.3670654-2.4082031c10.0088501,4.2217102,19.1299438-3.0917969,19.1299438-3.0917969
				c-6.8838501,13.1875-16.4414062,8.9092102-24.7294922,6.3057098
				C565.8255615,199.3536987,561.5775757,200.7492065,558.9710693,202.0363007z"/>
			<path style="fill:#B98F16;" d="M516.8421631,251.6358948c-8.5067749-4.862793-15.3456726-8.4076996-15.3602905-8.414093
				l-0.0019836-0.0010071l3.2373047,14.0029907c0,0-9.6025085,15.6259155-14.7470093,24.1059265
				c0.1102905,0.0546875,0.2265015,0.0986938,0.335907,0.1567993c0,0,26.5839844-29.8218079,26.5830078-29.8223114v-0.0014954
				C516.8734741,251.6535034,516.8579102,251.6446991,516.8421631,251.6358948z"/>
			<path style="fill:#D2AD15;" d="M562.840271,229.5234985c0-10.253006-6.9199829-14.4570923-10.0147095-15.8280029
				c-4.5877686-0.1875-9.3192749,0.2411041-13.3778687,1.8973999c1.3233032,12.1224976,18.7382812,28.3261108,29.2020874,31.9051971
				c0.0839844,0.0254059,0.1621094,0.0528107,0.2462158,0.0782013
				C563.8988647,243.7218018,572.2103882,229.5234985,562.840271,229.5234985z"/>
			<path style="fill:#E3C029;" d="M527.4603882,257.9240112L527.4603882,257.9240112
				c-3.5712891-2.2017059-7.1992188-4.3340149-10.5703125-6.2608185l-0.0009766,0.0010071l-26.5830078,29.8223114
				c-1.4746094-0.7862244-3.125-1.2784119-4.9111023-1.2784119v10.4512024h0.0166016
				c-4.4844055,0.9883118-7.4794922,4.7022095-7.4794922,10.4325867h7.484375l-0.0048828,9.3223267
				c0.9902039,1.101593,2.5487976,1.8046875,4.1337891,1.8505859l37.9590149-54.3135071
				C527.487793,257.943512,527.4505615,257.9371033,527.4603882,257.9240112z"/>
			<path style="fill:#D2AD15;" d="M566.5599976,257.5635986c-10.3574219,6.4975891-31.0029297,5.5703125-31.0234375,5.5567017
				c-0.0108032-0.0073853-0.0214844-0.0141907-0.0321655-0.0215149c-0.0245361,0.0088196,5.8300171,3.589325,11.883667,9.4248047
				l40.6592407,6.4736023C588.0473022,278.9971924,574.9212646,265.9039001,566.5599976,257.5635986z"/>
			<path style="fill:#D2AD15;" d="M610.9613647,330.764801c-4.7011719,0-18.9042969-1.875-18.9042969-12.2987976
				c0-6.1387024,0-21.592804,0-21.592804l-10.843811,17.6835938l-0.1416016,17.9100952
				c17.5147095,20.093811,13.1270142,43.0049133,5.1368408,52.2344055v6.9335938
				c4.9696655-0.0956726,9.8535156-0.2118835,14.5350952-0.382782l-1.2216797-5.2099915l6.4882812-11.2568054
				C606.0101929,374.7853088,603.1762085,338.5480042,610.9613647,330.764801z"/>
			<path style="fill:#EFD544;" d="M527.5043945,257.9512939l-37.9590149,54.3135071
				c0.0516968,0,0.1006165,0.0087891,0.1600952,0.0087891c0.6358032,0,13.4268188-9.5038757,13.4268188-9.5038757
				l32.4042664-39.6494141C532.9945679,261.3985901,530.2670288,259.6549072,527.5043945,257.9512939L527.5043945,257.9512939z"/>
			<path style="fill:#F6E477;" d="M539.4476929,215.5928955c-14.031189,7.2528992-20.4598999,28.2158051-37.9658203,27.6289062
				c0.0244141,0.0108032,19.8955078,10.3105927,34.0546875,19.8984985
				c0.0273438,0.0184937,36.8066406,1.6659851,36.8066406-14.8936005
				C563.0072632,248.2266998,540.9437866,229.2960052,539.4476929,215.5928955z"/>
			<path style="fill:#E3C029;" d="M504.1430054,230.7433014c3.0409851-7.8661957,4.1562805-20.6611023,7.4882812-33.3643036
				l-15.9159851-10.1210022l-3.8212891-6.6259918h-17.8730164l-3.3233032,5.7567902
				c6.9013977,0.6650085,11.3173828,1.1679993,11.4530945,1.1807098l3.1210938,0.3945007v24.9579926L504.1430054,230.7433014z"/>
			<path style="fill:#EFD544;" d="M525.7094116,169.9463959V159.232605l11.0186157,4.8504944
				c-0.0977173-0.5673065-0.3320312-3.5693054,4.8563843-6.4521027c-0.225647,3.2304993,4.4814453,5.6054993,9.9169922,7.2666016
				c-5.6367188,13.1006012-13.9697266,33.1533051-12.0537109,50.6952972
				c-14.0283203,7.2528992-20.4589844,28.2158051-37.9658203,27.6289062c0,0-4.4716797-2.1230011-5.9667969-4.7256012
				C512.1176147,238.4962006,503.1214905,192.5372009,525.7094116,169.9463959z"/>
			<path style="fill:#EFD544;" d="M571.2672119,343.7030945c5.4019775,5.4190979,8.6422729,11.697998,8.6422729,17.7618103
				c0,13.680603-9.2626953,18.6572876-9.2626953,18.6572876c-10.9882202-3.5216064-14.0692139,7.6358032-14.8319092,11.6884155
				c3.8847046,0.0057983,7.9296875,0.007782,12.1376953,0.007782c6.0145874,0,12.5565796-0.0644836,18.2557983-0.1679993v-6.9490967
				c7.9902954-9.2294922,12.3779907-32.140686-5.1367188-52.2344971L571.2672119,343.7030945z"/>
			<path style="fill:#EFD544;" d="M560.5385132,324.6055908c-0.0029297-2.2147827-0.0049438-5.9564819-0.0078125-8.0868835
				l-0.0018921,0.0004883c0.0008545,0.5112,0.0008545,1.0229187,0.0018921,1.5429077l-34.0585938,7.9273071l-22.547821,44.3999023
				c6.7645874,0.5507812,12.8368835,1.1395874,18.1014709,1.7070007l-2.1698608-5.7470093l27.4882812-39.2198181
				L560.5385132,324.6055908z"/>
			<path style="fill:#E3C029;" d="M510.5726929,329.6906128c-2.5371094,22.1747742-17.0869141,29.2059937-17.0869141,29.2059937
				s-2.7772827-0.6893921-5.655304-0.6893921c-6.3983765,0-9.5282898,10.5809937-9.5282898,10.5809937
				c3.3770142,0.1524048,6.914093,0.3554993,10.4541016,0.5751953c3.0049133,0.1601868,5.9424133,0.342804,8.7520142,0.5458984
				c2.2070007,0.1630859,4.3270874,0.3291016,6.406189,0.5028992l22.5606079-44.4227905L510.5726929,329.6906128z"/>
			<path style="fill:#D2AD15;" d="M560.5161133,304.2305908l-14.6416016-10.7344055l-40.8360291,33.8076172
				c0,0,2.1221008,2.9589844,5.5342102,2.3868103l49.9580078-11.6285095
				C560.5249023,312.7828979,560.5200195,307.9224854,560.5161133,304.2305908z"/>
			<path style="fill:#EFD544;" d="M535.5355835,263.1211853l-11.6494141,14.254425l36.6299438,26.8549805
				c-0.0049438-4.2382812-0.0078125-6.9364929-0.0078125-6.9364929c0-2.3106079-0.390686-4.5741882-1.0723267-6.7647095
				c-2.1289062-7.0625-7.1474609-13.281189-12.0479126-18.0057983c-5.8623047-5.6503906-11.5204468-9.1767883-11.8515015-9.4028931
				L535.5355835,263.1211853z"/>
			<path style="fill:#E3C029;" d="M578.2639771,181.7958984l-9.4353638-7.0301971l-1.5996094-6.7138977
				c0,0-8.5098267-0.9472961-15.7277222-3.1542969c-5.6365967,13.1005859-13.9696045,33.1533966-12.0535889,50.6953888
				c12.9766235-5.2910919,32.8153687,1.9217987,32.8153687,1.9217987l-3.1170654-8.3905945l4.5545654-5.2725067
				c0,0-13.5165405,1.5752106-13.5214844,1.5674133c-3.9902954-8.9746094-0.6513062-13.3944092,8.0429077-13.3944092
				c3.6270752,0,6.4404907,1.758606,6.4404907,1.758606l1.8828125-6.1239014L574.9173584,184.625l2.2988281,0.2120972
				L578.2639771,181.7958984z M557.4790039,175.7207031c-2.4650269,0.0839996-4.5236206-1.5127106-4.5878906-3.5644073
				c-0.0079346-0.2303925,0.0183716-0.4579926,0.0575562-0.6806946c3.0371094,0.1894989,6.1807251,0.5995941,8.8026123,1.0146942
				C561.4476929,174.2490997,559.6781616,175.6446075,557.4790039,175.7207031z"/>
			
				<linearGradient id="SVGID_2_" gradientUnits="userSpaceOnUse" x1="1606.4853516" y1="348.4627075" x2="1606.4881592" y2="348.4627075" gradientTransform="matrix(1 0 0 1 -1351.5136719 0)">
				<stop  offset="0" style="stop-color:#B98F16"/>
				<stop  offset="1" style="stop-color:#D2AD15"/>
			</linearGradient>
			<polygon style="fill:url(#SVGID_2_);" points="254.9744873,348.4719849 254.9744873,348.4533997 254.9715881,348.4719849 			"/>
			<g>
				<path style="fill:#D2AD15;" d="M180.3386993,248.341095c0-11.0077972,14.6953888-7.5302887,22.7539978-7.5302887
					c8.0625,0,7.4873047-10.4111023,7.4873047-10.4111023c-2.7256012,0-7.8721008,0-15.342804,0
					C182.9910889,230.399704,175.1600037,237.9494934,180.3386993,248.341095z"/>
				<path style="fill:#E3C029;" d="M227.9500885,225.8157043c-3.5800934-3.5810089-7.2939911-5.5537109-12.5761871-5.5537109
					c-11.7246094,0-28.6826019-0.7471008-31.0498047-6.9042969c-2.0576019,2.1582031-1.8672028,6.5156097,3.1436005,11.5234985
					c-13.2012024,0-15.5254059,3.0028992-16.8574982,5.8095093c-3.4452057,7.2558899,2.5323029,17.6503906,9.7285004,17.6503906
					c-5.1786957-10.3916016,2.6523895-17.941391,14.8984985-17.941391c7.4707031,0,12.6172028,0,15.342804,0h2.2958984h2.4980011
					c1.7968903,0,3.7686005,0.9423981,5.4081879,2.5820007c3.4766083,3.4776001,3.4766083,9.1376953,0,12.6152954
					l-24.3065948,24.3055878c-1.535202,1.5342102-2.6445923,3.2763977-3.5458984,5.1309204L232.9149017,244.3694
					C234.67659,237.9739075,232.9676971,230.8352966,227.9500885,225.8157043z"/>
			</g>
			<path style="fill:#B98F16;" d="M256.6033936,202.0140076c0.1953125-0.7305145,0.3203125-1.4170074,0.3876953-2.0684052
				c-3.5263977-4.1376953-9.414093-5.7656097-17.3671875-2.4082031
				c-10.0088043,4.2216949-19.1298981-3.0917969-19.1298981-3.0917969c6.8837891,13.1875,16.441391,8.9091949,24.7294922,6.3056946
				C249.7488861,199.3314056,253.996994,200.7268982,256.6033936,202.0140076z"/>
			<path style="fill:#E3C029;" d="M298.7322998,251.6136017c8.5068054-4.8628082,15.3457031-8.4076996,15.3603821-8.4141083
				l0.0019226-0.0009918l-3.2373047,14.003006c0,0,9.602478,15.625885,14.7471008,24.105896
				c-0.1104126,0.0546875-0.2266235,0.0986938-0.3359985,0.1567993l-26.5830078-29.8222961v-0.0015106
				C298.7010803,251.6311951,298.7167053,251.622406,298.7322998,251.6136017z"/>
			<path style="fill:#D2AD15;" d="M262.7489929,213.6732025c-3.0947876,1.3710022-10.0146027,5.5751038-10.0146027,15.8280029
				c-9.3703003,0-1.0587006,14.1981964-6.0558014,18.0527954c0.0839996-0.0254974,0.1622009-0.0527954,0.246109-0.0780945
				c10.4640045-3.5791016,27.878891-19.7828064,29.2021027-31.905304
				C272.0682068,213.9143066,267.3368835,213.4857025,262.7489929,213.6732025z"/>
			<path style="fill:#EFD544;" d="M288.1141052,257.9017029L288.1141052,257.9017029
				c3.5712891-2.2017059,7.1992798-4.3339996,10.5703735-6.2608032c0,0,0.0009155,0.0005035,0.0009155,0.0010071
				l26.5830078,29.8222961c1.4746094-0.7861938,3.125-1.2784119,4.9111938-1.2784119v10.4512024h-0.0166016
				c4.4842834,0.9883118,7.4794922,4.7022095,7.4794922,10.4326172h-7.4844055l0.0049133,9.3222961
				c-0.9902954,1.101593-2.5488892,1.8046875-4.1337891,1.8505859l-37.9590149-54.3135071
				C288.086792,257.9212036,288.1239014,257.9147949,288.1141052,257.9017029z"/>
			<path style="fill:#E3C029;" d="M249.0144958,257.5412903c10.3575134,6.4976196,31.0029907,5.5703125,31.0234985,5.5567017
				c0.0107117-0.0073853,0.0214844-0.0141907,0.032196-0.0214844c0.0244141,0.0087891-5.8301086,3.5892944-11.8837891,9.4248047
				l-40.6592102,6.4736023C227.5271912,278.9749146,240.6531982,265.8815918,249.0144958,257.5412903z"/>
			<path style="fill:#F6E477;" d="M204.6131897,330.7424927c4.7011108,0,18.9043121-1.875,18.9043121-12.2987976
				c0-6.1387024,0-21.592804,0-21.592804l10.843689,17.6835938l0.1416016,17.9101257
				c-17.5146027,20.0937805-13.1268921,43.0048828-5.1367035,52.234375v6.9336243
				c-4.969696-0.0957031-9.8535004-0.2119141-14.5351868-0.3828125l1.2216949-5.2099915l-6.4882965-11.2568054
				C209.5643005,374.7630005,212.3983002,338.5256958,204.6131897,330.7424927z"/>
			<path style="fill:#E3C029;" d="M229.3660889,391.6282043c5.6992035,0.1034851,12.2412109,0.1679993,18.2559052,0.1679993
				c4.2080078,0,8.2528992-0.0020142,12.1375885-0.0078125c-0.7625732-4.0527039-3.843689-15.2099915-14.8319855-11.6884766
				c0,0-9.2627106-4.9766235-9.2627106-18.6572266c0-6.0810852,3.2084045-12.3370972,8.6381073-17.7667847l-9.8002014-11.2312927
				c-17.5146027,20.0937805-13.1268921,43.0048828-5.1367035,52.234375V391.6282043z"/>
			<path style="fill:#D2AD15;" d="M288.0701904,257.9289856l37.9590149,54.3135071
				c-0.0518188,0-0.1006165,0.0088196-0.1602173,0.0088196c-0.6356812,0-13.4266968-9.5039062-13.4266968-9.5039062
				l-32.4042969-39.6494141C282.5799866,261.3763123,285.3074951,259.6325989,288.0701904,257.9289856L288.0701904,257.9289856z"/>
			<path style="fill:#F6E477;" d="M243.2312927,248.2044067c0,16.5596008,36.7792969,14.9120789,36.8067017,14.8935852
				c14.1590881-9.5878906,34.0302124-19.8876953,34.0546875-19.8984985
				c-17.5058899,0.5869141-23.9346008-20.3759918-37.9658813-27.628891
				C274.6307068,229.2736969,252.5672913,248.2044067,243.2312927,248.2044067z"/>
			<path style="fill:#D2AD15;" d="M311.431488,230.720993c-3.0409851-7.8661957-4.156189-20.661087-7.4882812-33.3642883
				l15.9160767-10.1210022l3.8211975-6.6260071h17.8731079l3.3232117,5.7568054
				c-6.9013062,0.6649933-11.3173218,1.1679993-11.4530945,1.1806946l-3.1211243,0.3945007v24.9580078L311.431488,230.720993z"/>
			<path style="fill:#E3C029;" d="M289.8650818,169.9241028v-10.7138062l-11.0184937,4.8505096
				c0.0975952-0.5673065,0.3320007-3.5693054-4.8565063-6.4521027c0.2256165,3.2304993-4.4813843,5.6054993-9.9169922,7.2666016
				c5.6367188,13.1006012,13.969696,33.1532898,12.0537109,50.6952972
				c14.0283813,7.2528992,20.4589844,28.2158051,37.9658813,27.628891c0,0,4.4716187-2.1229858,5.9667969-4.7255859
				C303.4568787,238.4739075,312.4530029,192.5148926,289.8650818,169.9241028z"/>
			<path style="fill:#EFD544;" d="M268.1903076,272.497406c-0.0010071,0.0014038-0.0028992,0.0023804-0.0039062,0.0039062l0,0
				C268.1874084,272.4997864,268.1893005,272.4988098,268.1903076,272.497406z M196.5672913,296.8508911
				c3.5957031,3.5996094,8.3827972,5.5809937,13.4746094,5.5809937c5.089798,0,9.8778992-1.9813843,13.4756012-5.5809937
				l10.843689,17.6835938l0.1416016,17.9101257l20.4960938,23.4892883
				c0.0107117-6.5419922,0.0674133-58.6621094,0.0674133-58.6621094c0-2.3105774,0.3905945-4.5741882,1.0722809-6.764679
				c2.1289062-7.0625,7.1474304-13.2812195,12.047821-18.0057983l-40.6592102,6.4736023l-8.3309937,8.1903992
				c0,0-8.9541016,9.0283813-15.4571075,2.5195923c-3.4803925-3.4804993-3.4803925-9.1376953,0-12.6152954l24.3028107-24.3037109
				c2.4139862-2.4131012,4.0282898-5.3202972,4.8730011-8.3964996l-39.9853058,30.6641083
				C189.4763947,282.1408997,190.672699,290.9554138,196.5672913,296.8508911z"/>
			<path style="fill:#F6E477;" d="M255.0359955,324.583313c0.0028992-2.2148132,0.0048981-5.9565125,0.0077972-8.0869141
				l0.0019989,0.0004883c-0.0009918,0.5112-0.0009918,1.0229187-0.0019989,1.5429077l34.0585938,7.9273071l22.5479126,44.3999023
				c-6.7647095,0.5507812-12.8369141,1.1395874-18.101593,1.7070007l2.1698914-5.7470093l-27.4883118-39.2197876
				L255.0359955,324.583313z"/>
			<path style="fill:#D2AD15;" d="M305.0018005,329.6683044c2.5370789,22.1748047,17.0868835,29.2059937,17.0868835,29.2059937
				s2.7774048-0.6893921,5.655304-0.6893921c6.3984985,0,9.5282898,10.5809937,9.5282898,10.5809937
				c-3.3768921,0.1524048-6.9139709,0.3554993-10.454071,0.5751953c-3.0048218,0.1602173-5.9423218,0.342804-8.7519226,0.5458984
				c-2.2070007,0.1631165-4.327179,0.3291016-6.4062805,0.5028992l-22.5605164-44.4227905L305.0018005,329.6683044z"/>
			<path style="fill:#E3C029;" d="M255.0584869,304.208313l14.6416168-10.7344055l40.835907,33.8075867
				c0,0-2.1221313,2.9590149-5.5342102,2.3868103l-49.9580078-11.6285095
				C255.0496979,312.7605896,255.0545959,307.9002075,255.0584869,304.208313z"/>
			<path style="fill:#B98F16;" d="M280.0388794,263.0989075l11.6495056,14.2543945l-36.6298981,26.855011
				c0.0049133-4.2383118,0.0078125-6.9365234,0.0078125-6.9365234c0-2.3105774,0.3905945-4.5741882,1.0722809-6.764679
				c2.1289062-7.0625,7.1474304-13.2812195,12.047821-18.0057983c5.8623047-5.6504211,11.5204773-9.1768188,11.851593-9.4029236
				L280.0388794,263.0989075z"/>
			<path style="fill:#EFD544;" d="M264.0730896,164.8753052c-7.217804,2.2068939-15.7274933,3.1542969-15.7274933,3.1542969
				l-1.5995941,6.7137909l-9.4356079,7.0302124l1.0478973,3.0411987l2.2989044-0.2120972l-1.628006,3.0341949l1.8828125,6.1240997
				c0,0,2.8134918-1.7586975,6.4404907-1.7586975c8.6944122,0,12.0330963,4.4197998,8.0429077,13.3945007
				c-0.0048065,0.0077972-13.5214081-1.5673981-13.5214081-1.5673981l4.5545959,5.2723999l-3.1170959,8.390686
				c0,0,19.8388062-7.2128906,32.8153076-1.9218903C278.0427856,198.0285034,269.7098083,177.9759064,264.0730896,164.8753052z
				 M258.0955811,175.6985016c-2.1991882-0.0762024-3.9687805-1.4716949-4.2724915-3.2304993
				c2.6221924-0.4151001,5.7655945-0.8251953,8.8029175-1.0147095c0.0390015,0.2228088,0.0652771,0.4502106,0.0574951,0.6808014
				C262.618988,174.1858063,260.5603943,175.7823944,258.0955811,175.6985016z"/>
			<path style="fill:#D2AD15;" d="M477.9291992,321.6791992c0,39.3564148-70.1455078,53.2958984-70.1455078,53.2958984
				s-70.1416016-13.9394836-70.1416016-53.2958984c0-35.3681946,0-127.0126953,0-127.0126953
				s23.7362976-4.5039062,70.1416016-4.5039062c46.4111023,0,70.1455078,4.5039062,70.1455078,4.5039062
				S477.9291992,289.0932922,477.9291992,321.6791992z"/>
			<path style="fill:#B98F16;" d="M407.7836914,374.9750977c0,0,70.1455078-13.9394836,70.1455078-53.2958984
				c0-32.585907,0-127.0126953,0-127.0126953s-23.7344055-4.5039062-70.1455078-4.5039062
				c-10.9316101,0-20.6064148,0.25-29.0078125,0.6327972c63.3291321,2.5293121,88.6396179,11.0918121,88.6396179,11.0918121
				s0.0567017,88.5966797,0.0567017,121.0625C467.4721985,355.4165039,407.7836914,374.9750977,407.7836914,374.9750977z"/>
			<path style="fill:#4B4B4B;" d="M421.9458923,267.0631104l-5.368988-0.6679993l-1.6607056,2.2156982l-12.5410156-7.9942017
				c1.2619019,6.3114929,4.7015991,18.3339844,13.5256958,28.5625916
				c5.8788147,4.252594,12.0220032,8.7056885,16.9005127,12.2387085
				c-0.3853149-20.6468201-7.3766174-32.0151062-9.1947937-36.5704956L421.9458923,267.0631104z"/>
			<g>
				<path style="fill:#FFFFFF;" d="M396.2771912,275.0075989c-6.5716858-4.6914062-4.4205017-13.9710083-0.09729-18.336792
					l18.7362976,11.9400024l1.6607056-2.2156982l5.368988,0.6679993l1.6607056-2.2156982l13.8548889,2.3835754
					c-2.5866089-4.1385803-6.8940125-10.8034973-13.440094-15.2644806l1.6607971-2.2157135
					c-3.3461914-1.5764008-10.9949951-2.8261871-19.8377991-2.8261871c-6.6217957,0-13.4863892,0-13.4863892,0l9.5307922-27.1687012
					c2.5343933-7.3131104-1.9803162-13.1630096-6.8951111-13.7059021
					c-7.4246826-0.8170013-10.4957886,7.1710968-10.4957886,7.1710968l8.144104,8.2947998
					c0.1828003,0.0417023-10.501709,24.9620056-10.501709,24.9620056c-1.0899963,2.6096954-1.8053894,5.9921875-1.8288879,9.6462097
					c-0.0449219,6.9773865,3.1431885,14.1016846,9.6416931,20.4141846
					c5.5123901,5.3544922,29.3667908,24.0646057,29.3667908,24.0646057l1.9208069-2.5509033l11.5606995,3.3659058
					C432.8013916,301.4179077,398.1130066,276.3150024,396.2771912,275.0075989z"/>
			</g>
			<path style="fill:#636363;" d="M402.3751831,260.6166077l-6.195282-3.9458008
				c-4.3232117,4.3657837-6.4743958,13.6453857,0.09729,18.336792c1.9999084,1.4234009,10.4801025,7.5552979,19.6236877,14.1716003
				C407.0767822,278.950592,403.637085,266.9281006,402.3751831,260.6166077z"/>
			<path d="M437.4614868,267.230896l-13.8548889-2.3834839c1.8181763,4.5553894,8.8094788,15.9236755,9.1947937,36.5704956
				c5.5317993,4.0084839,9.4334106,6.831604,9.4334106,6.831604l2.7341003-3.6439209l7.1680908,4.9602051
				c-0.39151-3.2868042-0.9479065-6.3823853-1.6274109-9.3132935
				C447.4025879,285.6769104,442.2608948,274.7088013,437.4614868,267.230896z"/>
			<path style="fill:#4B4B4B;" d="M425.3224792,352.428894c-0.3065796-0.7723999-0.8794861-1.5099792-1.9761963-1.5099792
				h-4.0263977v-19.0505066l-3.2972107,1.4989014v17.4940796h-6.1165771c-0.7095947,0-2.0797119,1.0085144-2.5493164,1.0085144
				h-2.7341003c-1.101593,0-1.6754761,0.7335815-1.9781799,1.5089111l-0.2006226,0.6000977l-0.1138916,0.7579956
				c-0.0245972,0.243103-0.0245972,0.4058838-0.0245972,0.4058838h6.5942993l1.3543091-1.0065002h2.7507019
				c-1.732605,1.065094-3.5870972,2.2076111-4.2897034,2.635498c-0.9416199,0.5767212-1.0565186,1.5099182-0.9199219,2.3287964
				l0.1466064,0.6358032l0.2828979,0.6865234c0.1051025,0.2233887,0.1827087,0.3642883,0.1827087,0.3642883l11.1730042-6.5983887
				h6.0812988c0,0-0.0039978-0.1598206-0.0274963-0.4049072l-0.1884155-0.7850037L425.3224792,352.428894z"/>
			<path style="fill:#636363;" d="M367.3802795,281.7488098l-0.6200867,0.8309021l0.3684998,5.4111938l1.0328064-1.3927002
				l0.742981,0.0901794l4.2622986,7.397522c0,0,0.0550232-0.0346985,0.1444092-0.0903015l0.5299072-0.4328003l0.4627075-0.4120178
				c0.6162109-0.6680908,1.1351013-1.6389771,0.5159912-2.723877c-0.1672058-0.2889099-0.4422913-0.7694092-0.7793884-1.3570251
				l12.6018982,5.9828186l5.1525879-1.2169189l-20.6525879-9.7819824c-0.4570007-0.7842102-1.0840149-1.9764099-1.0840149-1.9764099
				C369.6907043,281.5076904,368.3226929,281.295105,367.3802795,281.7488098z"/>
			<polygon points="392.6419983,221.5158997 384.4978943,213.2210999 349.4136047,221.5158997 			"/>
			<path style="fill:#4B4B4B;" d="M366.0880127,283.4851074l-6.7124329,0.8605957c0,0-2.0036926,2.5690918-3.0267029,3.9429016
				c-0.6584778,0.8865051-0.4206848,1.7908936,0.0108032,2.502594l0.405426,0.5257874l0.4799805,0.5433044
				c0.1749268,0.1618042,0.3036194,0.2610168,0.3036194,0.2610168l3.4200745-4.6000061l2.759613-0.3911133
				c-1.3199158,1.7817993-2.7290955,3.6749268-3.2204895,4.3410034c-0.6585083,0.885498-0.4186096,1.7928162,0.015686,2.5025024
				l0.4360046,0.5614929l0.4454956,0.5057068c0.1759949,0.1657104,0.3046875,0.2651062,0.3046875,0.2651062l5.4189148-7.315094
				l-0.3684998-5.4111938L366.0880127,283.4851074z"/>
			<path style="fill:#4B4B4B;" d="M411.3291016,294.2789917c-1.0487976-0.8356018-2.1557007-1.7196045-3.2961121-2.6336975
				v9.5878906l-0.4884949,0.0606079l-15.7496948-7.4580078l-5.1524963,1.2170105l19.6413879,9.3262024l2.0145874,2.5968933
				l3.2313232-0.4635925l1.2185974-3.0604858l-1.4190979-1.826416V294.2789917z"/>
			<path d="M397.2471924,213.1912994c0,0-3.755188,1.6795959-4.6738892,1.6795959
				c-0.9150085,0-1.7730103-0.7523956-1.7730103-1.6795959c0-0.9281006,0.8580017-1.6806946,1.7730103-1.6806946
				C393.4920044,211.5106049,397.2471924,213.1912994,397.2471924,213.1912994z"/>
			<path d="M358.7935791,234.016098c-2.3553772-4.1698914,0.4031067-6.7189026,2.3384094-8.675705
				c1.4006042-1.422699,2.6141052-2.6440887,2.6398926-4.4403992c0.0348206-2.3579865-1.3049927-2.7885895-4.5997009-3.2671967
				c-1.9582825-0.285202-3.9830933-0.5787048-5.1345825-2.0636902c-0.6519165-0.8492126-0.9172974-1.8390045-0.7642212-2.8594055
				c0.3414001-2.2810974,2.6794128-3.9842072,2.9423218-4.1705017c0.6608887-0.463501,1.5628052-0.2976074,2.0162964,0.3636017
				c0.4592896,0.6625061,0.2978821,1.5738983-0.3579102,2.0368042c-0.5185852,0.3692017-1.6177979,1.3885956-1.7406006,2.209198
				c-0.0216064,0.1645966-0.0164795,0.353302,0.1903992,0.6215973c0.428009,0.5574951,1.9312134,0.7749023,3.256897,0.9682922
				c2.8521118,0.4148102,7.1607056,1.0402069,7.0839233,6.2039032c-0.0417175,2.9808044-1.8696899,4.8318024-3.4818115,6.4647064
				c-1.8373108,1.8553925-3.3340149,3.2133942-2.3407898,5.8340912c0.6510925,1.7181091,3.5966797,2.6287079,3.0305786,3.6452026
				C363.3390808,237.8448944,359.9484863,236.0606995,358.7935791,234.016098z"/>
			<path d="M419.3198853,300.6029053c0,0-1.2778931-1.0025024-3.2972107-2.5989075v6.0444031h0.0384216l-1.6333008,2.8548889
				l1.5948792,2.7965088v23.667511l3.2972107-1.4989014v-22.1110229l1.6343079-2.8540955l-1.6343079-2.8548889V300.6029053z"/>
			<line style="fill:#636363;" x1="443.8955994" y1="306.033905" x2="442.2348022" y2="308.2495117"/>
			<path style="fill:#636363;" d="M443.2922974,261.927002c-5.0267944-5.2015991-10.9852905-9.386795-17.6101074-12.1762085
				l-1.6607971,2.2157135c6.5460815,4.4609833,10.8534851,11.1259003,13.440094,15.2644806
				c4.799408,7.4778137,9.9411011,18.4459229,13.0480957,33.0215149c0.6795044,2.9309082,1.2358093,6.0264893,1.6274109,9.3132935
				l6.9255066,4.8562927C462.5944824,294.3916931,455.8862,274.9578857,443.2922974,261.927002z"/>
			<path style="fill:#E3C029;" d="M547.3880615,272.5235901L547.3880615,272.5235901
				c-0.0008545-0.0014954-0.0028687-0.0025024-0.0038452-0.0038757
				C547.3851929,272.5210876,547.387207,272.5220947,547.3880615,272.5235901z M622.6450195,275.0557861l-39.9854126-30.664093
				c0.8447876,3.0762024,2.4589844,5.9834137,4.8731079,8.3964996l24.3026733,24.3036957
				c3.4804688,3.4776001,3.4804688,9.1348267,0,12.6153259c-6.5029297,6.5087891-15.4570312-2.5196228-15.4570312-2.5196228
				l-8.3310547-8.1903992l-40.6592407-6.4736023c4.9004517,4.7246094,9.9190063,10.9432983,12.0479126,18.0057983
				c0.6816406,2.1905212,1.0723267,4.4541016,1.0723267,6.7647095c0,0,0.0565796,52.1201172,0.0672607,58.6621094
				l20.4960938-23.4893188l0.1416016-17.9100952l10.843811-17.6835938c3.5975952,3.5996094,8.3857422,5.5809937,13.475647,5.5809937
				c5.0917969,0,9.8788452-1.9813843,13.4745483-5.5809937C624.9017944,290.9776917,626.0980835,282.163208,622.6450195,275.0557861
				z"/>
		</g>
	</g>
</g>
</svg>
